<svg id="レイヤー_1" data-name="レイヤー 1" xmlns="http://www.w3.org/2000/svg" viewBox="0 0 96.55 20">
  <defs>
    <style>
      .cls-1 {
        fill: #007891;
      }

      .cls-2 {
        fill: #ff7449;
      }
    </style>
  </defs>
  <title>ai-campus-logo</title>
  <g>
    <g>
      <g>
        <path class="cls-1" d="M445.842,285.858q.219-.479.5-1.048l-.233-.181a6.09,6.09,0,0,1-2.122,1.165,8.048,8.048,0,0,1-2.407.362,4.813,4.813,0,0,1-3.856-1.5,5.932,5.932,0,0,1-1.294-4.011,15.366,15.366,0,0,1,.388-3.364,10.963,10.963,0,0,1,1.229-3.17,7.369,7.369,0,0,1,2.187-2.368,5.632,5.632,0,0,1,3.286-.932,5.821,5.821,0,0,1,2.652.556,4.659,4.659,0,0,1,1.876,1.876h.259q.181-.44.479-1.087a8.053,8.053,0,0,1,.712-1.242q-.389-.207-.958-.492a9.334,9.334,0,0,0-1.346-.531,13.1,13.1,0,0,0-1.785-.414,13.96,13.96,0,0,0-2.277-.168,11.5,11.5,0,0,0-4.322.789,10.3,10.3,0,0,0-3.39,2.174,9.7,9.7,0,0,0-2.2,3.235,10.2,10.2,0,0,0-.362,6.78,6.863,6.863,0,0,0,1.449,2.627,7.322,7.322,0,0,0,2.782,1.915,11.005,11.005,0,0,0,3.855.706q2.192-.323,4.442-.609Q445.623,286.335,445.842,285.858Z" transform="translate(-432.45 -269.309)"/>
        <path class="cls-1" d="M457.062,273.488l2.2,12.019c1.189-.09,2.391-.169,3.6-.246-.865-3.776-3.613-15.768-3.626-15.859H457.48l-10.325,17.293c.734-.089,1.483-.168,2.225-.252C449.974,285.29,457.062,273.488,457.062,273.488Z" transform="translate(-432.45 -269.309)"/>
        <path class="cls-1" d="M469.076,275.576q.169-.631.237-.879c.067.215,2.243,8.077,2.787,10.124.394-.013.789-.023,1.184-.034,1.431-2.064,6.454-9.052,7.074-9.82-.11.772-1.527,8.037-1.889,9.716,1.145-.013,2.285-.033,3.44-.033.421-2.248,2.824-14.645,2.935-15.047H482.2l-7.8,10.706c-.105-.285-2.953-9.654-3.223-10.706h-2.231c-.114.481-2.981,11.694-3.987,15.526.564-.032,1.138-.054,1.705-.083C467.177,282.981,468.978,275.946,469.076,275.576Z" transform="translate(-432.45 -269.309)"/>
        <path class="cls-1" d="M490.86,278.418c.226.03.492.056.8.079s.643.034,1,.034a8.29,8.29,0,0,0,2.243-.293,5.425,5.425,0,0,0,1.837-.89,4.251,4.251,0,0,0,1.251-1.533,4.965,4.965,0,0,0,.462-2.22,3.462,3.462,0,0,0-1.172-2.941,5.055,5.055,0,0,0-3.133-.89h-4.869q-.135.947-.316,1.871c-.113.577-2.273,10.265-2.967,13.054,1.125.014,2.248.031,3.363.057C489.683,283.2,490.616,279.4,490.86,278.418Zm.845-4.26q.327-1.555.71-3.111a7.243,7.243,0,0,1,1.082.034,1.86,1.86,0,0,1,.845.293,1.592,1.592,0,0,1,.552.687,3.014,3.014,0,0,1,.2,1.217,5.99,5.99,0,0,1-.192,1.522,4,4,0,0,1-.586,1.3,2.932,2.932,0,0,1-1.014.9,3.041,3.041,0,0,1-1.476.338c-.166,0-.3,0-.417-.012s-.229-.019-.349-.034Q491.378,275.713,491.706,274.158Z" transform="translate(-432.45 -269.309)"/>
        <path class="cls-1" d="M509.031,285.378a5.9,5.9,0,0,0,2.305-1.791,9.234,9.234,0,0,0,1.426-2.774q.532-1.615.981-3.535.2-.889.449-1.92t.508-2.037q.259-1.006.517-1.931t.476-1.627h-2.051q-.154.843-.432,2.177t-.591,2.728q-.313,1.393-.623,2.646t-.528,1.955q-.27.913-.606,1.861a6.254,6.254,0,0,1-.929,1.721,4.545,4.545,0,0,1-1.539,1.264,5.271,5.271,0,0,1-2.434.492,5.512,5.512,0,0,1-1.27-.14,2.927,2.927,0,0,1-1.038-.457,2.133,2.133,0,0,1-.691-.831,2.811,2.811,0,0,1-.23-1.288,8.235,8.235,0,0,1,.077-.948q.067-.48.219-1.206.1-.492.3-1.346t.435-1.814q.235-.96.471-1.873t.406-1.522q.267-.866.512-1.709t.489-1.709h-3.424c-.179,1.264-2.713,11.277-2.726,11.87a3.751,3.751,0,0,0,.515,2.142,4.219,4.219,0,0,0,1.4,1.37c.1.058.207.094.308.146q3.1.2,6.126.465A6.511,6.511,0,0,0,509.031,285.378Z" transform="translate(-432.45 -269.309)"/>
        <path class="cls-1" d="M526.671,269.937a9.933,9.933,0,0,0-2.562-.311,7.44,7.44,0,0,0-2.342.362,5.575,5.575,0,0,0-1.9,1.048,4.87,4.87,0,0,0-1.268,1.708,5.6,5.6,0,0,0-.466,2.342,5.043,5.043,0,0,0,.246,1.63,4.787,4.787,0,0,0,.686,1.32,7.75,7.75,0,0,0,1.022,1.126q.582.53,1.255,1.074.569.465,1.061.906a8.417,8.417,0,0,1,.867.893,4.378,4.378,0,0,1,.6.919,2.281,2.281,0,0,1,.22.983,2.2,2.2,0,0,1-.259,1.087,2.741,2.741,0,0,1-.673.8,2.846,2.846,0,0,1-.944.5,3.608,3.608,0,0,1-1.1.168,3.533,3.533,0,0,1-2.511-.893,3.43,3.43,0,0,1-1.061-2.368h-.543a12.254,12.254,0,0,1-.414,1.527,10.553,10.553,0,0,1-.7,1.63c.119.075.238.139.357.208,2.488.295,4.916.628,7.307.984.041-.011.085-.015.126-.027a5.764,5.764,0,0,0,2.005-1.035,5.02,5.02,0,0,0,1.372-1.734,5.428,5.428,0,0,0,.5-2.406,4.544,4.544,0,0,0-.246-1.54,5.516,5.516,0,0,0-.647-1.268,6.6,6.6,0,0,0-.944-1.087q-.544-.5-1.139-1-.751-.621-1.32-1.126a8.816,8.816,0,0,1-.944-.957,3.731,3.731,0,0,1-.57-.906,2.376,2.376,0,0,1-.194-.945,2.344,2.344,0,0,1,.168-.867,2.1,2.1,0,0,1,.5-.75,2.647,2.647,0,0,1,.841-.531,3.015,3.015,0,0,1,1.151-.207,2.876,2.876,0,0,1,2.225.815,3.477,3.477,0,0,1,.88,2.058h.569q.181-.7.388-1.41A8.761,8.761,0,0,1,529,271,8.224,8.224,0,0,0,526.671,269.937Z" transform="translate(-432.45 -269.309)"/>
      </g>
      <path class="cls-2" d="M481.779,287.585c-14.876,0-28.922.622-41.343,1.723h82.686C510.7,288.207,496.655,287.585,481.779,287.585Z" transform="translate(-432.45 -269.309)"/>
    </g>
    <path class="cls-2" d="M461.306,275.362c.825.043,1.355.222,1.44.543.219.829-2.547,2.278-6.181,3.239s-6.753,1.068-6.972.24c-.065-.244.141-.548.549-.874-1.415.778-2.215,1.541-2.064,2.113.3,1.153,4.345,1.081,9.024-.157s8.226-3.172,7.921-4.325C464.846,275.47,463.4,275.215,461.306,275.362Z" transform="translate(-432.45 -269.309)"/>
  </g>
</svg>
